# File created by Blade
# Date/Time:  Tue Sep 28 14:35:47 2010
#---------------------------------------------------------
:version 1.10
:name HOM
:units
  mass 1.0
  length 1.000000
  angle deg
:documentation
     Acclaim Skeleton File
:root
   axis xyz
   order TX TY TZ RX RY RZ
   position 0.000000 0.000000 0.000000
   orientation 0 0 0
:bonedata
   begin
      id 1
      name LeftUpLeg_dum
      direction 1.000000 0.000000 0.000000
      length 3.677894
      axis 0.0 0.0 0.0 xyz
   end
   begin
      id 2
      name RightUpLeg_dum
      direction -1.000000 0.000000 0.000000
      length 3.677894
      axis 0.0 0.0 0.0 xyz
   end
   begin
      id 3
      name Spine_dum
      direction 0.000000 1.000000 0.000000
      length 0.039370
      axis 0.0 0.0 0.0 xyz
   end
   begin
      id 4
      name LeftUpLeg
      direction 0.000000 -1.000000 0.000000
      length 18.389491
      axis 0.0 0.0 0.0 xyz
      dof rx ry rz
   end
   begin
      id 5
      name LeftLeg
      direction 0.000000 -1.000000 0.000000
      length 16.918313
      axis 0.0 0.0 0.0 xyz
      dof rx ry rz
   end
   begin
      id 6
      name LeftFoot
      direction 0.000000 -0.258819 0.965926
      length 6.436326
      axis 15.0 0.0 0.0 xyz
      dof rx ry rz
   end
   begin
      id 7
      name LeftToeBase
      direction 0.000000 0.000000 1.000000
      length 2.952750
      axis 0.0 0.0 0.0 xyz
      dof rx ry rz
   end
   begin
      id 8
      name RightUpLeg
      direction 0.000000 -1.000000 0.000000
      length 18.389491
      axis 0.0 0.0 0.0 xyz
      dof rx ry rz
   end
   begin
      id 9
      name RightLeg
      direction 0.000000 -1.000000 0.000000
      length 16.918313
      axis 0.0 0.0 0.0 xyz
      dof rx ry rz
   end
   begin
      id 10
      name RightFoot
      direction 0.000000 -0.258819 0.965926
      length 6.436326
      axis 15.0 0.0 0.0 xyz
      dof rx ry rz
   end
   begin
      id 11
      name RightToeBase
      direction 0.000000 0.000000 1.000000
      length 2.952750
      axis 0.0 0.0 0.0 xyz
      dof rx ry rz
   end
   begin
      id 12
      name Spine
      direction 0.000000 1.000000 0.000000
      length 9.194745
      axis 0.0 0.0 0.0 xyz
      dof rx ry rz
   end
   begin
      id 13
      name Spine1
      direction 0.000000 1.000000 0.000000
      length 0.000000
      axis 0.0 0.0 0.0 xyz
      dof rx ry rz
   end
   begin
      id 14
      name Spine1_dum1
      direction 0.000000 1.000000 0.000000
      length 9.194745
      axis 0.0 0.0 0.0 xyz
   end
   begin
      id 15
      name Spine1_dum2
      direction 0.000000 1.000000 0.000000
      length 9.194745
      axis 0.0 0.0 0.0 xyz
   end
   begin
      id 16
      name Spine1_dum3
      direction 0.000000 1.000000 0.000000
      length 9.194745
      axis 0.0 0.0 0.0 xyz
   end
   begin
      id 17
      name Neck
      direction 0.000000 1.000000 0.000000
      length 4.229598
      axis 0.0 0.0 0.0 xyz
      dof rx ry rz
   end
   begin
      id 18
      name Head
      direction 0.000000 1.000000 0.000000
      length 4.527550
      axis 0.0 0.0 0.0 xyz
      dof rx ry rz
   end
   begin
      id 19
      name LeftShoulder
      direction 1.000000 -0.000004 0.000000
      length 5.516839
      axis 0.0 0.0 -90.0 xyz
      dof rx ry rz
   end
   begin
      id 20
      name LeftArm
      direction 1.000000 -0.000004 0.000000
      length 11.033679
      axis 0.0 0.0 -90.0 xyz
      dof rx ry rz
   end
   begin
      id 21
      name LeftForeArm
      direction 1.000000 -0.000004 0.000000
      length 10.114232
      axis 0.0 0.0 -90.0 xyz
      dof rx ry rz
   end
   begin
      id 22
      name LeftHand
      direction 0.000000 0.000000 0.000000
      length 0.000000
      axis 0.0 0.0 -90.0 xyz
      dof rx ry rz
   end
   begin
      id 23
      name LeftHand_dum1
      direction 0.000000 0.000000 0.000000
      length 0.000000
      axis 0.0 0.0 -90.0 xyz
   end
   begin
      id 24
      name LeftHand_dum2
      direction 1.000000 -0.000004 0.000000
      length 3.937000
      axis 0.0 0.0 -90.0 xyz
   end
   begin
      id 25
      name LeftHandThumb
      direction 0.000000 0.000000 1.000000
      length 3.937000
      axis 0.0 0.0 -90.0 xyz
      dof rx ry rz
   end
   begin
      id 26
      name RightShoulder
      direction -1.000000 -0.000004 0.000000
      length 5.516839
      axis 0.0 0.0 90.0 xyz
      dof rx ry rz
   end
   begin
      id 27
      name RightArm
      direction -1.000000 -0.000004 0.000000
      length 11.033679
      axis 0.0 0.0 90.0 xyz
      dof rx ry rz
   end
   begin
      id 28
      name RightForeArm
      direction -1.000000 -0.000004 0.000000
      length 10.114232
      axis 0.0 0.0 90.0 xyz
      dof rx ry rz
   end
   begin
      id 29
      name RightHand
      direction 0.000000 0.000000 0.000000
      length 0.000000
      axis 0.0 0.0 90.0 xyz
      dof rx ry rz
   end
   begin
      id 30
      name RightHand_dum1
      direction 0.000000 0.000000 0.000000
      length 0.000000
      axis 0.0 0.0 90.0 xyz
   end
   begin
      id 31
      name RightHand_dum2
      direction -1.000000 -0.000004 0.000000
      length 5.393690
      axis 0.0 0.0 90.0 xyz
   end
   begin
      id 32
      name RightHandThumb
      direction 0.000000 0.000000 1.000000
      length 3.937000
      axis 0.0 0.0 90.0 xyz
      dof rx ry rz
   end
:hierarchy
   begin
      root LeftUpLeg_dum RightUpLeg_dum Spine_dum
      LeftUpLeg_dum LeftUpLeg
      RightUpLeg_dum RightUpLeg
      Spine_dum Spine
      LeftUpLeg LeftLeg
      LeftLeg LeftFoot
      LeftFoot LeftToeBase
      RightUpLeg RightLeg
      RightLeg RightFoot
      RightFoot RightToeBase
      Spine Spine1
      Spine1 Spine1_dum1 Spine1_dum2 Spine1_dum3
      Spine1_dum1 Neck
      Spine1_dum2 LeftShoulder
      Spine1_dum3 RightShoulder
      Neck Head
      LeftShoulder LeftArm
      LeftArm LeftForeArm
      LeftForeArm LeftHand
      LeftHand LeftHand_dum1 LeftHand_dum2
      LeftHand_dum1 LeftHandThumb
      RightShoulder RightArm
      RightArm RightForeArm
      RightForeArm RightHand
      RightHand RightHand_dum1 RightHand_dum2
      RightHand_dum1 RightHandThumb
   end

# File created by Blade
# Date/Time:  Tue Sep 28 14:35:42 2010
# Frame Rate: 200.000 fps
#------------------------------------------------------
:FULLY-SPECIFIED
:DEGREES
682
root  0.833873 36.440460 18.792779 4.708552 5.207082 -10.120120
LeftUpLeg  -8.949721 7.126667 12.701632
LeftLeg  56.906193 -0.000000 -0.000000
LeftFoot  28.506948 11.028973 15.118125
LeftToeBase  -6.323948 0.000000 0.000000
RightUpLeg  -26.801809 -16.446649 17.883344
RightLeg  24.583758 -0.000000 0.000000
RightFoot  7.006448 -5.908707 -18.521355
RightToeBase  -8.724404 0.000000 -0.000000
Spine  -13.574056 -3.190696 8.361521
Spine1  15.072927 -4.742049 9.411184
Neck  9.519926 2.687719 -11.088487
Head  -9.363492 2.056764 1.901925
LeftShoulder  -6.718606 -10.385024 -28.050731
LeftArm  1.748395 37.240991 -39.175822
LeftForeArm  39.558028 -0.000000 0.000000
LeftHand  5.989000 -14.120308 -0.731382
LeftHandThumb  0.000000 -0.000000 0.000000
RightShoulder  2.160824 5.151479 22.062875
RightArm  -5.280305 -47.469110 44.475566
RightForeArm  21.819982 -0.000000 0.000000
RightHand  2.955829 13.548435 2.380019
RightHandThumb  0.000000 -0.000000 0.000000
683
root  0.807419 36.481606 19.013132 4.646933 5.244600 -10.095720
LeftUpLeg  -9.600177 7.170246 12.699815
LeftLeg  58.019050 -0.000000 -0.000000
LeftFoot  27.786235 11.354063 15.320353
LeftToeBase  -6.936468 0.000000 -0.000000
RightUpLeg  -26.402508 -16.723043 17.852471
RightLeg  24.567601 -0.000000 0.000000
RightFoot  6.766313 -5.787997 -18.472319
RightToeBase  -8.661627 0.000000 -0.000000
Spine  -13.551897 -3.177392 8.361920
Spine1  15.034735 -4.728962 9.325839
Neck  9.627127 2.516839 -11.029499
Head  -9.262249 1.944243 1.990573
LeftShoulder  -6.735704 -10.503036 -27.868516
LeftArm  1.637350 37.537672 -39.273231
LeftForeArm  39.876019 -0.000000 0.000000
LeftHand  6.077365 -14.142698 -0.891010
LeftHandThumb  0.000000 -0.000000 0.000000
RightShoulder  2.075657 5.060456 22.074061
RightArm  -5.323272 -47.515248 44.561324
RightForeArm  21.753815 -0.000000 0.000000
RightHand  2.881466 13.684243 2.867231
RightHandThumb  0.000000 -0.000000 0.000000
684
root  0.780173 36.523175 19.229568 4.601501 5.319838 -10.065328
LeftUpLeg  -10.245519 7.214797 12.693719
LeftLeg  59.027006 -0.000000 -0.000000
LeftFoot  26.974807 11.802393 15.493481
LeftToeBase  -7.964032 0.000000 -0.000000
RightUpLeg  -26.014161 -17.189629 17.869438
RightLeg  24.497875 -0.000000 0.000000
RightFoot  6.548590 -5.470549 -18.548625
RightToeBase  -8.770553 0.000000 -0.000000
Spine  -13.523147 -3.161567 8.365170
Spine1  15.016142 -4.717072 9.227350
Neck  9.712051 2.551874 -10.942399
Head  -9.344435 2.065003 1.896319
LeftShoulder  -6.739238 -10.686300 -27.697959
LeftArm  1.508419 37.927200 -39.350048
LeftForeArm  40.221975 -0.000000 0.000000
LeftHand  6.214486 -13.902121 -0.810042
LeftHandThumb  0.000000 -0.000000 0.000000
RightShoulder  1.965699 4.934902 22.086802
RightArm  -5.319547 -47.472935 44.619414
RightForeArm  21.743357 -0.000000 0.000000
RightHand  2.811315 13.831533 2.996399
RightHandThumb  0.000000 -0.000000 0.000000
685
root  0.755460 36.563071 19.443736 4.548047 5.365206 -10.034081
LeftUpLeg  -10.898504 7.254521 12.670507
LeftLeg  60.028537 -0.000000 -0.000000
LeftFoot  26.084751 12.192054 15.584724
LeftToeBase  -8.759363 0.000000 -0.000000
RightUpLeg  -25.631398 -17.562972 17.843815
RightLeg  24.472426 -0.000000 0.000000
RightFoot  6.321795 -5.234053 -18.517872
RightToeBase  -8.856627 0.000000 -0.000000
Spine  -13.497583 -3.148498 8.368643
Spine1  14.994767 -4.707307 9.136252
Neck  9.795527 2.322193 -10.882333
Head  -9.219841 1.854140 2.005105
LeftShoulder  -6.743461 -10.792448 -27.579509
LeftArm  1.460183 38.181956 -39.362158
LeftForeArm  40.498155 -0.000000 0.000000
LeftHand  6.404019 -13.692674 -0.996633
LeftHandThumb  0.000000 -0.000000 0.000000
RightShoulder  1.880953 4.878808 22.092717
RightArm  -5.381740 -47.531785 44.695665
RightForeArm  21.723026 -0.000000 0.000000
RightHand  2.799391 13.865843 3.234859
RightHandThumb  0.000000 -0.000000 0.000000
686
root  0.734339 36.602629 19.656538 4.494231 5.395668 -9.998168
LeftUpLeg  -11.555130 7.270157 12.626357
LeftLeg  60.976939 -0.000000 -0.000000
LeftFoot  25.209359 12.620463 15.524560
LeftToeBase  -9.126452 0.000000 -0.000000
RightUpLeg  -25.242104 -17.884440 17.791444
RightLeg  24.445275 -0.000000 0.000000
RightFoot  6.084471 -5.035173 -18.436984
RightToeBase  -8.830266 0.000000 -0.000000
Spine  -13.475070 -3.128007 8.371119
Spine1  14.970097 -4.689377 9.052335
Neck  9.867776 2.364782 -10.799190
Head  -9.202934 1.980717 1.920935
LeftShoulder  -6.757247 -10.869998 -27.488299
LeftArm  1.436922 38.433286 -39.334217
LeftForeArm  40.806483 -0.000000 0.000000
LeftHand  6.534881 -13.238204 -1.153546
LeftHandThumb  0.000000 -0.000000 0.000000
RightShoulder  1.804146 4.825170 22.085056
RightArm  -5.473983 -47.635752 44.782445
RightForeArm  21.763587 -0.000000 0.000000
RightHand  2.899053 13.936185 3.537485
RightHandThumb  0.000000 -0.000000 0.000000
687
root  0.711393 36.643022 19.866015 4.450990 5.428452 -9.957993
LeftUpLeg  -12.182289 7.320890 12.587066
LeftLeg  61.752372 -0.000000 -0.000000
LeftFoot  24.519054 13.022400 15.636837
LeftToeBase  -9.630318 0.000000 -0.000000
RightUpLeg  -24.883247 -18.287933 17.761511
RightLeg  24.439808 -0.000000 0.000000
RightFoot  5.890107 -4.758741 -18.374244
RightToeBase  -9.226793 0.000000 -0.000000
Spine  -13.440237 -3.103723 8.366717
Spine1  14.970565 -4.668076 8.966542
Neck  9.894363 2.528788 -10.742075
Head  -9.247013 2.133426 1.885835
LeftShoulder  -6.759119 -10.966252 -27.405962
LeftArm  1.400672 38.737415 -39.293213
LeftForeArm  41.127369 -0.000000 0.000000
LeftHand  6.834991 -12.927478 -1.078021
LeftHandThumb  0.000000 -0.000000 0.000000
RightShoulder  1.719894 4.711300 22.089454
RightArm  -5.470409 -47.572558 44.825749
RightForeArm  21.777628 -0.000000 0.000000
RightHand  2.925949 14.142243 3.576351
RightHandThumb  0.000000 -0.000000 0.000000
